<svg xmlns="http://www.w3.org/2000/svg" viewBox="0 0 49 60" width="49" height="60">
	<defs>
		<clipPath clipPathUnits="userSpaceOnUse" id="cp1">
			<path d="M-1370 -358L550 -358L550 722L-1370 722Z" />
		</clipPath>
	</defs>
	<style>
		tspan { white-space:pre }
		.shp0 { fill: #cecece } 
	</style>
	<g id="Contact Us – 6" clip-path="url(#cp1)">
		<g id="file_upload_progress_1">
			<g id="pdf-01">
				<path id="Path 2014" fill-rule="evenodd" class="shp0" d="M43.32 60C31.8 60 20.28 60 8.74 60C8.64 59.96 8.54 59.92 8.42 59.88C5.8 59.28 4.06 57.72 3.42 55.12C3.18 54.12 3.26 53.04 3.22 51.98C3.2 51.58 3.22 51.18 3.22 50.78C1.1 50.88 -0.06 49.68 0 47.44C0.1 43.98 0.02 40.52 0.02 37.08C0.02 35.54 0 34 0.04 32.46C0.08 31.1 1.12 30.1 2.5 30.04C2.72 30.02 2.96 30.04 3.22 30.04C3.22 29.72 3.22 29.5 3.22 29.26C3.22 21.7 3.22 14.14 3.22 6.6C3.22 3.62 4.96 1.2 7.68 0.34C8.04 0.2 8.38 0.1 8.74 0C17.1 0 25.46 0 33.82 0C33.96 0.18 34.08 0.38 34.24 0.54C38.94 5.22 43.64 9.92 48.36 14.6C48.72 14.96 48.88 15.3 48.88 15.82C48.86 28.24 48.86 40.66 48.86 53.08C48.86 53.38 48.86 53.66 48.84 53.96C48.74 55.9 47.9 57.46 46.38 58.68C45.48 59.4 44.4 59.72 43.32 60ZM7.12 50.74C7.12 51.62 7.12 52.38 7.12 53.16C7.12 55.1 8.1 56.08 10.04 56.08C20.7 56.08 31.36 56.08 42.04 56.08C44.04 56.08 44.98 55.12 44.96 53.12C44.92 41.18 44.9 29.26 44.86 17.32C44.86 17.12 44.86 16.9 44.86 16.62C44.56 16.62 44.34 16.62 44.1 16.62C41.46 16.62 38.82 16.66 36.2 16.58C34.2 16.52 32.38 14.7 32.32 12.7C32.22 9.98 32.26 7.28 32.24 4.56C32.24 4.34 32.22 4.1 32.2 3.86C32 3.86 31.88 3.84 31.74 3.84C24.46 3.84 17.16 3.84 9.88 3.86C8.12 3.86 7.12 4.88 7.12 6.64C7.12 14.22 7.12 21.8 7.12 29.38C7.12 29.56 7.12 29.76 7.12 29.96C7.44 29.96 7.68 29.96 7.92 29.96C17.72 29.96 27.52 29.96 37.34 29.96C39.4 29.96 40.38 30.96 40.38 33.02C40.38 37.9 40.34 42.78 40.4 47.66C40.42 49.52 39.26 50.72 37.32 50.72C27.52 50.68 17.72 50.7 7.9 50.7C7.66 50.74 7.42 50.74 7.12 50.74ZM16.16 35.4C16.16 39 16.16 42.5 16.16 46.08C17.64 46.08 19.06 46.2 20.48 46.06C23.86 45.72 25.56 43.84 25.66 40.56C25.74 37.74 24.24 35.88 21.48 35.36C19.7 35.04 17.94 35.18 16.16 35.4ZM9.18 42.3C10.08 42.2 10.92 42.2 11.7 42.04C13.5 41.66 14.54 40.32 14.52 38.54C14.48 36.8 13.44 35.64 11.58 35.32C9.98 35.06 8.4 35.2 6.8 35.42C6.8 38.98 6.8 42.5 6.8 46.06C7.6 46.06 8.38 46.06 9.2 46.06C9.18 44.76 9.18 43.52 9.18 42.3ZM27.32 35.28C27.32 38.92 27.32 42.46 27.32 46.02C28.14 46.02 28.92 46.02 29.74 46.02C29.74 44.58 29.74 43.16 29.74 41.68C31.06 41.68 32.32 41.68 33.58 41.68C33.58 41 33.58 40.38 33.58 39.7C32.28 39.7 31.04 39.7 29.78 39.7C29.78 38.84 29.78 38.06 29.78 37.22C31.16 37.22 32.5 37.22 33.88 37.22C33.88 36.54 33.88 35.92 33.88 35.26C31.68 35.28 29.52 35.28 27.32 35.28Z" />
				<path id="Path 2015" class="shp0" d="M18.6 44.16C18.6 41.82 18.6 39.5 18.6 37.2C20.02 36.76 21.66 37.24 22.44 38.26C23.26 39.34 23.28 41.58 22.48 42.82C21.76 43.96 20.22 44.5 18.6 44.16Z" />
				<path id="Path 2016" class="shp0" d="M9.2 40.4C9.2 39.28 9.18 38.36 9.22 37.42C9.22 37.28 9.42 37.06 9.52 37.06C9.96 37.02 10.42 37.02 10.86 37.1C11.64 37.24 12.06 37.76 12.12 38.5C12.18 39.24 11.8 39.94 11.1 40.16C10.52 40.32 9.88 40.32 9.2 40.4Z" />
			</g>
		</g>
	</g>
</svg>